<mxfile host="65bd71144e">
    <diagram id="AJ65_mbbUnXxJEVwl05N" name="第 1 页">
        <mxGraphModel dx="1025" dy="627" grid="1" gridSize="10" guides="1" tooltips="1" connect="1" arrows="1" fold="1" page="1" pageScale="1" pageWidth="827" pageHeight="1169" math="0" shadow="0">
            <root>
                <mxCell id="0"/>
                <mxCell id="1" parent="0"/>
                <mxCell id="3" value="&lt;br style=&quot;font-family: menlo, monaco, &amp;quot;courier new&amp;quot;, monospace;&quot;&gt;&lt;br style=&quot;font-family: menlo, monaco, &amp;quot;courier new&amp;quot;, monospace;&quot;&gt;&lt;div style=&quot;font-family: menlo, monaco, &amp;quot;courier new&amp;quot;, monospace;&quot;&gt;第二步: 分别计算他们的第一个值&lt;/div&gt;&lt;br style=&quot;font-family: menlo, monaco, &amp;quot;courier new&amp;quot;, monospace;&quot;&gt;&lt;div style=&quot;font-family: menlo, monaco, &amp;quot;courier new&amp;quot;, monospace;&quot;&gt;f(166), 也就是凑出 166&lt;/div&gt;&lt;br style=&quot;font-family: menlo, monaco, &amp;quot;courier new&amp;quot;, monospace;&quot;&gt;&lt;div style=&quot;font-family: menlo, monaco, &amp;quot;courier new&amp;quot;, monospace;&quot;&gt;取100: cost = f(66) + 1&lt;/div&gt;&lt;div style=&quot;font-family: menlo, monaco, &amp;quot;courier new&amp;quot;, monospace;&quot;&gt;取50: cost = f(116) + 1&lt;/div&gt;&lt;div style=&quot;font-family: menlo, monaco, &amp;quot;courier new&amp;quot;, monospace;&quot;&gt;取20: cost = f(146) + 1&lt;/div&gt;&lt;div style=&quot;font-family: menlo, monaco, &amp;quot;courier new&amp;quot;, monospace;&quot;&gt;取10: cost = f(156) + 1&lt;/div&gt;&lt;div style=&quot;font-family: menlo, monaco, &amp;quot;courier new&amp;quot;, monospace;&quot;&gt;取5: cost = f(161) + 1&lt;/div&gt;&lt;div style=&quot;font-family: menlo, monaco, &amp;quot;courier new&amp;quot;, monospace;&quot;&gt;取1: cost = f(165) + 1&lt;/div&gt;&lt;div&gt;&lt;br&gt;&lt;/div&gt;" style="rounded=0;whiteSpace=wrap;html=1;strokeColor=#ae4132;fillColor=#E5BFFF;fontColor=#000000;" vertex="1" parent="1">
                    <mxGeometry y="340" width="240" height="205" as="geometry"/>
                </mxCell>
                <mxCell id="4" value="&lt;div style=&quot;font-family: &amp;#34;menlo&amp;#34; , &amp;#34;monaco&amp;#34; , &amp;#34;courier new&amp;#34; , monospace&quot;&gt;&lt;br&gt;&lt;/div&gt;&lt;br style=&quot;font-family: &amp;#34;menlo&amp;#34; , &amp;#34;monaco&amp;#34; , &amp;#34;courier new&amp;#34; , monospace&quot;&gt;&lt;div style=&quot;font-family: &amp;#34;menlo&amp;#34; , &amp;#34;monaco&amp;#34; , &amp;#34;courier new&amp;#34; , monospace&quot;&gt;首先第一步: 拿出一张的可能性&lt;/div&gt;&lt;div style=&quot;font-family: &amp;#34;menlo&amp;#34; , &amp;#34;monaco&amp;#34; , &amp;#34;courier new&amp;#34; , monospace&quot;&gt;取100: cost = f(166) + 1&lt;/div&gt;&lt;div style=&quot;font-family: &amp;#34;menlo&amp;#34; , &amp;#34;monaco&amp;#34; , &amp;#34;courier new&amp;#34; , monospace&quot;&gt;取50: cost = f(216) + 1&lt;/div&gt;&lt;div style=&quot;font-family: &amp;#34;menlo&amp;#34; , &amp;#34;monaco&amp;#34; , &amp;#34;courier new&amp;#34; , monospace&quot;&gt;取20: cost = f(246) + 1&lt;/div&gt;&lt;div style=&quot;font-family: &amp;#34;menlo&amp;#34; , &amp;#34;monaco&amp;#34; , &amp;#34;courier new&amp;#34; , monospace&quot;&gt;取10: cost = f(256) + 1&lt;/div&gt;&lt;div style=&quot;font-family: &amp;#34;menlo&amp;#34; , &amp;#34;monaco&amp;#34; , &amp;#34;courier new&amp;#34; , monospace&quot;&gt;取5: cost = f(261) + 1&lt;/div&gt;&lt;div style=&quot;font-family: &amp;#34;menlo&amp;#34; , &amp;#34;monaco&amp;#34; , &amp;#34;courier new&amp;#34; , monospace&quot;&gt;取1: cost = f(265) + 1&lt;/div&gt;&lt;div&gt;&lt;br&gt;&lt;/div&gt;" style="rounded=0;whiteSpace=wrap;html=1;strokeColor=#ae4132;fillColor=#E5BFFF;fontColor=#000000;" vertex="1" parent="1">
                    <mxGeometry y="140" width="230" height="170" as="geometry"/>
                </mxCell>
                <mxCell id="5" value="&lt;div style=&quot;font-family: &amp;#34;menlo&amp;#34; , &amp;#34;monaco&amp;#34; , &amp;#34;courier new&amp;#34; , monospace&quot;&gt;可选金额有: 1, 5, 10, 20, 50, 100;&lt;/div&gt;&lt;div style=&quot;font-family: &amp;#34;menlo&amp;#34; , &amp;#34;monaco&amp;#34; , &amp;#34;courier new&amp;#34; , monospace&quot;&gt;目标: 266;&lt;/div&gt;&lt;div style=&quot;font-family: &amp;#34;menlo&amp;#34; , &amp;#34;monaco&amp;#34; , &amp;#34;courier new&amp;#34; , monospace&quot;&gt;消耗最少的张数;&lt;/div&gt;" style="rounded=0;whiteSpace=wrap;html=1;fontColor=#000000;fillColor=#E5BFFF;" vertex="1" parent="1">
                    <mxGeometry y="30" width="280" height="60" as="geometry"/>
                </mxCell>
                <mxCell id="12" value="" style="edgeStyle=orthogonalEdgeStyle;rounded=0;orthogonalLoop=1;jettySize=auto;html=1;fontColor=#000000;" edge="1" parent="1" source="6" target="9">
                    <mxGeometry relative="1" as="geometry"/>
                </mxCell>
                <mxCell id="13" style="edgeStyle=orthogonalEdgeStyle;rounded=0;orthogonalLoop=1;jettySize=auto;html=1;entryX=0.5;entryY=0;entryDx=0;entryDy=0;fontColor=#000000;" edge="1" parent="1" source="6" target="8">
                    <mxGeometry relative="1" as="geometry">
                        <Array as="points">
                            <mxPoint x="1000" y="110"/>
                            <mxPoint x="800" y="110"/>
                        </Array>
                    </mxGeometry>
                </mxCell>
                <mxCell id="14" style="edgeStyle=orthogonalEdgeStyle;rounded=0;orthogonalLoop=1;jettySize=auto;html=1;entryX=0.5;entryY=0;entryDx=0;entryDy=0;fontColor=#000000;" edge="1" parent="1" source="6" target="11">
                    <mxGeometry relative="1" as="geometry">
                        <Array as="points">
                            <mxPoint x="1000" y="110"/>
                            <mxPoint x="1225" y="110"/>
                        </Array>
                    </mxGeometry>
                </mxCell>
                <mxCell id="6" value="266" style="whiteSpace=wrap;html=1;fontColor=#000000;fillColor=#E5BFFF;" vertex="1" parent="1">
                    <mxGeometry x="940" y="40" width="120" height="40" as="geometry"/>
                </mxCell>
                <mxCell id="16" value="" style="edgeStyle=orthogonalEdgeStyle;rounded=0;orthogonalLoop=1;jettySize=auto;html=1;fontColor=#000000;entryX=0.5;entryY=0;entryDx=0;entryDy=0;" edge="1" parent="1" source="8" target="24">
                    <mxGeometry relative="1" as="geometry">
                        <mxPoint x="800" y="270" as="targetPoint"/>
                    </mxGeometry>
                </mxCell>
                <mxCell id="8" value="&lt;span style=&quot;font-family: &amp;#34;menlo&amp;#34; , &amp;#34;monaco&amp;#34; , &amp;#34;courier new&amp;#34; , monospace&quot;&gt;取100: cost = f(166) + 1&lt;/span&gt;" style="whiteSpace=wrap;html=1;fontColor=#000000;fillColor=#E5BFFF;" vertex="1" parent="1">
                    <mxGeometry x="710" y="160" width="180" height="60" as="geometry"/>
                </mxCell>
                <mxCell id="9" value="&lt;span style=&quot;font-family: &amp;#34;menlo&amp;#34; , &amp;#34;monaco&amp;#34; , &amp;#34;courier new&amp;#34; , monospace&quot;&gt;取50: cost = f(216) + 1&lt;/span&gt;" style="whiteSpace=wrap;html=1;fontColor=#000000;fillColor=#E5BFFF;" vertex="1" parent="1">
                    <mxGeometry x="915" y="160" width="170" height="60" as="geometry"/>
                </mxCell>
                <mxCell id="11" value="&lt;span style=&quot;font-family: &amp;#34;menlo&amp;#34; , &amp;#34;monaco&amp;#34; , &amp;#34;courier new&amp;#34; , monospace&quot;&gt;取20: cost = f(246) + 1&lt;/span&gt;" style="whiteSpace=wrap;html=1;fontColor=#000000;fillColor=#E5BFFF;" vertex="1" parent="1">
                    <mxGeometry x="1140" y="160" width="170" height="60" as="geometry"/>
                </mxCell>
                <mxCell id="39" value="" style="edgeStyle=orthogonalEdgeStyle;rounded=0;orthogonalLoop=1;jettySize=auto;html=1;fontColor=#000000;" edge="1" parent="1" source="17" target="38">
                    <mxGeometry relative="1" as="geometry"/>
                </mxCell>
                <mxCell id="17" value="&lt;font face=&quot;menlo, monaco, courier new, monospace&quot;&gt;10&lt;/font&gt;" style="whiteSpace=wrap;html=1;fontColor=#000000;fillColor=#E5BFFF;" vertex="1" parent="1">
                    <mxGeometry x="710" y="410" width="180" height="60" as="geometry"/>
                </mxCell>
                <mxCell id="19" value="&lt;font face=&quot;menlo, monaco, courier new, monospace&quot;&gt;2&lt;/font&gt;" style="whiteSpace=wrap;html=1;fontColor=#000000;fillColor=#E5BFFF;" vertex="1" parent="1">
                    <mxGeometry x="905" y="410" width="180" height="60" as="geometry"/>
                </mxCell>
                <mxCell id="20" value="&lt;font face=&quot;menlo, monaco, courier new, monospace&quot;&gt;1&lt;/font&gt;" style="whiteSpace=wrap;html=1;fontColor=#000000;fillColor=#E5BFFF;" vertex="1" parent="1">
                    <mxGeometry x="1100" y="410" width="180" height="60" as="geometry"/>
                </mxCell>
                <mxCell id="27" value="" style="edgeStyle=orthogonalEdgeStyle;rounded=0;orthogonalLoop=1;jettySize=auto;html=1;fontColor=#000000;" edge="1" parent="1" source="24" target="17">
                    <mxGeometry relative="1" as="geometry"/>
                </mxCell>
                <mxCell id="28" style="edgeStyle=orthogonalEdgeStyle;rounded=0;orthogonalLoop=1;jettySize=auto;html=1;entryX=0.5;entryY=0;entryDx=0;entryDy=0;fontColor=#000000;" edge="1" parent="1" source="24" target="19">
                    <mxGeometry relative="1" as="geometry"/>
                </mxCell>
                <mxCell id="29" style="edgeStyle=orthogonalEdgeStyle;rounded=0;orthogonalLoop=1;jettySize=auto;html=1;entryX=0.5;entryY=0;entryDx=0;entryDy=0;fontColor=#000000;" edge="1" parent="1" source="24" target="20">
                    <mxGeometry relative="1" as="geometry"/>
                </mxCell>
                <mxCell id="31" style="edgeStyle=orthogonalEdgeStyle;rounded=0;orthogonalLoop=1;jettySize=auto;html=1;fontColor=#000000;" edge="1" parent="1" source="24" target="30">
                    <mxGeometry relative="1" as="geometry"/>
                </mxCell>
                <mxCell id="33" style="edgeStyle=orthogonalEdgeStyle;rounded=0;orthogonalLoop=1;jettySize=auto;html=1;entryX=0.5;entryY=0;entryDx=0;entryDy=0;fontColor=#000000;" edge="1" parent="1" source="24" target="32">
                    <mxGeometry relative="1" as="geometry"/>
                </mxCell>
                <mxCell id="24" value="f(166)" style="rhombus;whiteSpace=wrap;html=1;fontColor=#000000;fillColor=#E5BFFF;" vertex="1" parent="1">
                    <mxGeometry x="722.5" y="260" width="155" height="60" as="geometry"/>
                </mxCell>
                <mxCell id="35" value="" style="edgeStyle=orthogonalEdgeStyle;rounded=0;orthogonalLoop=1;jettySize=auto;html=1;fontColor=#000000;" edge="1" parent="1" source="30" target="34">
                    <mxGeometry relative="1" as="geometry"/>
                </mxCell>
                <mxCell id="30" value="100" style="whiteSpace=wrap;html=1;fontColor=#000000;fillColor=#E5BFFF;" vertex="1" parent="1">
                    <mxGeometry x="390" y="400" width="120" height="60" as="geometry"/>
                </mxCell>
                <mxCell id="37" value="" style="edgeStyle=orthogonalEdgeStyle;rounded=0;orthogonalLoop=1;jettySize=auto;html=1;fontColor=#000000;" edge="1" parent="1" source="32" target="36">
                    <mxGeometry relative="1" as="geometry"/>
                </mxCell>
                <mxCell id="32" value="50" style="whiteSpace=wrap;html=1;fontColor=#000000;fillColor=#E5BFFF;" vertex="1" parent="1">
                    <mxGeometry x="550" y="400" width="120" height="60" as="geometry"/>
                </mxCell>
                <mxCell id="50" value="" style="edgeStyle=orthogonalEdgeStyle;rounded=0;orthogonalLoop=1;jettySize=auto;html=1;fontColor=#000000;" edge="1" parent="1" source="34" target="48">
                    <mxGeometry relative="1" as="geometry"/>
                </mxCell>
                <mxCell id="34" value="f(66)+1" style="whiteSpace=wrap;html=1;fontColor=#000000;fillColor=#E5BFFF;" vertex="1" parent="1">
                    <mxGeometry x="390" y="540" width="120" height="60" as="geometry"/>
                </mxCell>
                <mxCell id="36" value="f(116) + 1" style="whiteSpace=wrap;html=1;fontColor=#000000;fillColor=#E5BFFF;" vertex="1" parent="1">
                    <mxGeometry x="550" y="540" width="120" height="60" as="geometry"/>
                </mxCell>
                <mxCell id="38" value="&lt;font face=&quot;menlo, monaco, courier new, monospace&quot;&gt;f(156) +1&lt;/font&gt;" style="whiteSpace=wrap;html=1;fontColor=#000000;fillColor=#E5BFFF;" vertex="1" parent="1">
                    <mxGeometry x="740" y="545" width="120" height="55" as="geometry"/>
                </mxCell>
                <mxCell id="42" value="&lt;font face=&quot;menlo, monaco, courier new, monospace&quot;&gt;10&lt;/font&gt;" style="whiteSpace=wrap;html=1;fontColor=#000000;fillColor=#E5BFFF;" vertex="1" parent="1">
                    <mxGeometry x="365" y="850" width="180" height="60" as="geometry"/>
                </mxCell>
                <mxCell id="43" value="&lt;font face=&quot;menlo, monaco, courier new, monospace&quot;&gt;2&lt;/font&gt;" style="whiteSpace=wrap;html=1;fontColor=#000000;fillColor=#E5BFFF;" vertex="1" parent="1">
                    <mxGeometry x="560" y="850" width="180" height="60" as="geometry"/>
                </mxCell>
                <mxCell id="44" value="" style="edgeStyle=orthogonalEdgeStyle;rounded=0;orthogonalLoop=1;jettySize=auto;html=1;fontColor=#000000;" edge="1" parent="1" source="48" target="42">
                    <mxGeometry relative="1" as="geometry"/>
                </mxCell>
                <mxCell id="45" style="edgeStyle=orthogonalEdgeStyle;rounded=0;orthogonalLoop=1;jettySize=auto;html=1;entryX=0.5;entryY=0;entryDx=0;entryDy=0;fontColor=#000000;" edge="1" parent="1" source="48" target="43">
                    <mxGeometry relative="1" as="geometry"/>
                </mxCell>
                <mxCell id="46" style="edgeStyle=orthogonalEdgeStyle;rounded=0;orthogonalLoop=1;jettySize=auto;html=1;fontColor=#000000;entryX=0.5;entryY=0;entryDx=0;entryDy=0;" edge="1" parent="1" source="48" target="51">
                    <mxGeometry relative="1" as="geometry">
                        <mxPoint x="105" y="840" as="targetPoint"/>
                    </mxGeometry>
                </mxCell>
                <mxCell id="47" style="edgeStyle=orthogonalEdgeStyle;rounded=0;orthogonalLoop=1;jettySize=auto;html=1;entryX=0.5;entryY=0;entryDx=0;entryDy=0;fontColor=#000000;" edge="1" parent="1" source="48" target="49">
                    <mxGeometry relative="1" as="geometry"/>
                </mxCell>
                <mxCell id="48" value="f(166)" style="rhombus;whiteSpace=wrap;html=1;fontColor=#000000;fillColor=#E5BFFF;" vertex="1" parent="1">
                    <mxGeometry x="372.5" y="700" width="155" height="60" as="geometry"/>
                </mxCell>
                <mxCell id="49" value="50" style="whiteSpace=wrap;html=1;fontColor=#000000;fillColor=#E5BFFF;" vertex="1" parent="1">
                    <mxGeometry x="205" y="840" width="120" height="60" as="geometry"/>
                </mxCell>
                <mxCell id="53" value="" style="edgeStyle=orthogonalEdgeStyle;rounded=0;orthogonalLoop=1;jettySize=auto;html=1;fontColor=#000000;" edge="1" parent="1" source="51" target="52">
                    <mxGeometry relative="1" as="geometry"/>
                </mxCell>
                <mxCell id="51" value="100" style="whiteSpace=wrap;html=1;fontColor=#000000;fillColor=#E5BFFF;" vertex="1" parent="1">
                    <mxGeometry x="50" y="840" width="120" height="60" as="geometry"/>
                </mxCell>
                <mxCell id="61" style="edgeStyle=orthogonalEdgeStyle;rounded=0;orthogonalLoop=1;jettySize=auto;html=1;fontColor=#000000;" edge="1" parent="1" source="52" target="59">
                    <mxGeometry relative="1" as="geometry"/>
                </mxCell>
                <mxCell id="52" value="f(66)&amp;nbsp; + 1" style="whiteSpace=wrap;html=1;fontColor=#000000;fillColor=#E5BFFF;" vertex="1" parent="1">
                    <mxGeometry x="50" y="980" width="120" height="60" as="geometry"/>
                </mxCell>
                <mxCell id="54" value="&lt;font face=&quot;menlo, monaco, courier new, monospace&quot;&gt;10&lt;/font&gt;" style="whiteSpace=wrap;html=1;fontColor=#000000;fillColor=#E5BFFF;" vertex="1" parent="1">
                    <mxGeometry x="25" y="1270" width="180" height="60" as="geometry"/>
                </mxCell>
                <mxCell id="55" value="" style="edgeStyle=orthogonalEdgeStyle;rounded=0;orthogonalLoop=1;jettySize=auto;html=1;fontColor=#000000;" edge="1" parent="1" source="59" target="54">
                    <mxGeometry relative="1" as="geometry"/>
                </mxCell>
                <mxCell id="56" style="edgeStyle=orthogonalEdgeStyle;rounded=0;orthogonalLoop=1;jettySize=auto;html=1;entryX=0.5;entryY=0;entryDx=0;entryDy=0;fontColor=#000000;" edge="1" parent="1" source="59">
                    <mxGeometry relative="1" as="geometry">
                        <mxPoint x="310" y="1270" as="targetPoint"/>
                    </mxGeometry>
                </mxCell>
                <mxCell id="57" style="edgeStyle=orthogonalEdgeStyle;rounded=0;orthogonalLoop=1;jettySize=auto;html=1;fontColor=#000000;entryX=0.5;entryY=0;entryDx=0;entryDy=0;" edge="1" parent="1" source="59">
                    <mxGeometry relative="1" as="geometry">
                        <mxPoint x="-230" y="1260" as="targetPoint"/>
                    </mxGeometry>
                </mxCell>
                <mxCell id="58" style="edgeStyle=orthogonalEdgeStyle;rounded=0;orthogonalLoop=1;jettySize=auto;html=1;entryX=0.5;entryY=0;entryDx=0;entryDy=0;fontColor=#000000;" edge="1" parent="1" source="59" target="60">
                    <mxGeometry relative="1" as="geometry"/>
                </mxCell>
                <mxCell id="59" value="f(66)" style="rhombus;whiteSpace=wrap;html=1;fontColor=#000000;fillColor=#E5BFFF;" vertex="1" parent="1">
                    <mxGeometry x="37.5" y="1120" width="155" height="60" as="geometry"/>
                </mxCell>
                <mxCell id="73" value="" style="edgeStyle=orthogonalEdgeStyle;rounded=0;orthogonalLoop=1;jettySize=auto;html=1;fontColor=#000000;" edge="1" parent="1" source="60" target="72">
                    <mxGeometry relative="1" as="geometry"/>
                </mxCell>
                <mxCell id="60" value="50" style="whiteSpace=wrap;html=1;fontColor=#000000;fillColor=#E5BFFF;" vertex="1" parent="1">
                    <mxGeometry x="-135" y="1260" width="120" height="60" as="geometry"/>
                </mxCell>
                <mxCell id="62" value="100" style="whiteSpace=wrap;html=1;fontColor=#000000;fillColor=#E5BFFF;" vertex="1" parent="1">
                    <mxGeometry x="-290" y="1260" width="120" height="60" as="geometry"/>
                </mxCell>
                <mxCell id="85" value="" style="edgeStyle=orthogonalEdgeStyle;rounded=0;orthogonalLoop=1;jettySize=auto;html=1;fontColor=#000000;" edge="1" parent="1" source="63" target="84">
                    <mxGeometry relative="1" as="geometry"/>
                </mxCell>
                <mxCell id="63" value="&lt;font face=&quot;menlo, monaco, courier new, monospace&quot;&gt;10&lt;/font&gt;" style="whiteSpace=wrap;html=1;fontColor=#000000;fillColor=#E5BFFF;" vertex="1" parent="1">
                    <mxGeometry x="-165" y="1610" width="180" height="60" as="geometry"/>
                </mxCell>
                <mxCell id="64" value="" style="edgeStyle=orthogonalEdgeStyle;rounded=0;orthogonalLoop=1;jettySize=auto;html=1;fontColor=#000000;" edge="1" parent="1" source="68" target="63">
                    <mxGeometry relative="1" as="geometry"/>
                </mxCell>
                <mxCell id="65" style="edgeStyle=orthogonalEdgeStyle;rounded=0;orthogonalLoop=1;jettySize=auto;html=1;entryX=0.5;entryY=0;entryDx=0;entryDy=0;fontColor=#000000;" edge="1" parent="1" source="68">
                    <mxGeometry relative="1" as="geometry">
                        <mxPoint x="130" y="1620" as="targetPoint"/>
                    </mxGeometry>
                </mxCell>
                <mxCell id="66" style="edgeStyle=orthogonalEdgeStyle;rounded=0;orthogonalLoop=1;jettySize=auto;html=1;fontColor=#000000;entryX=0.5;entryY=0;entryDx=0;entryDy=0;" edge="1" parent="1" source="68">
                    <mxGeometry relative="1" as="geometry">
                        <mxPoint x="-410" y="1610" as="targetPoint"/>
                    </mxGeometry>
                </mxCell>
                <mxCell id="67" style="edgeStyle=orthogonalEdgeStyle;rounded=0;orthogonalLoop=1;jettySize=auto;html=1;entryX=0.5;entryY=0;entryDx=0;entryDy=0;fontColor=#000000;" edge="1" parent="1" source="68" target="69">
                    <mxGeometry relative="1" as="geometry"/>
                </mxCell>
                <mxCell id="68" value="f(16)" style="rhombus;whiteSpace=wrap;html=1;fontColor=#000000;fillColor=#E5BFFF;" vertex="1" parent="1">
                    <mxGeometry x="-152.5" y="1470" width="155" height="60" as="geometry"/>
                </mxCell>
                <mxCell id="69" value="50" style="whiteSpace=wrap;html=1;fontColor=#000000;fillColor=#E5BFFF;" vertex="1" parent="1">
                    <mxGeometry x="-315" y="1610" width="120" height="60" as="geometry"/>
                </mxCell>
                <mxCell id="70" value="100" style="whiteSpace=wrap;html=1;fontColor=#000000;fillColor=#E5BFFF;" vertex="1" parent="1">
                    <mxGeometry x="-470" y="1610" width="120" height="60" as="geometry"/>
                </mxCell>
                <mxCell id="74" value="" style="edgeStyle=orthogonalEdgeStyle;rounded=0;orthogonalLoop=1;jettySize=auto;html=1;fontColor=#000000;" edge="1" parent="1" source="72" target="68">
                    <mxGeometry relative="1" as="geometry"/>
                </mxCell>
                <mxCell id="72" value="f(16)&amp;nbsp; + 1" style="whiteSpace=wrap;html=1;fontColor=#000000;fillColor=#E5BFFF;" vertex="1" parent="1">
                    <mxGeometry x="-135" y="1360" width="120" height="60" as="geometry"/>
                </mxCell>
                <mxCell id="75" value="&lt;font face=&quot;menlo, monaco, courier new, monospace&quot;&gt;10&lt;/font&gt;" style="whiteSpace=wrap;html=1;fontColor=#000000;fillColor=#E5BFFF;" vertex="1" parent="1">
                    <mxGeometry x="-175" y="2004" width="180" height="60" as="geometry"/>
                </mxCell>
                <mxCell id="76" value="" style="edgeStyle=orthogonalEdgeStyle;rounded=0;orthogonalLoop=1;jettySize=auto;html=1;fontColor=#000000;" edge="1" parent="1" source="80" target="75">
                    <mxGeometry relative="1" as="geometry"/>
                </mxCell>
                <mxCell id="77" style="edgeStyle=orthogonalEdgeStyle;rounded=0;orthogonalLoop=1;jettySize=auto;html=1;entryX=0.5;entryY=0;entryDx=0;entryDy=0;fontColor=#000000;" edge="1" parent="1" source="80" target="86">
                    <mxGeometry relative="1" as="geometry">
                        <mxPoint x="120" y="2014" as="targetPoint"/>
                    </mxGeometry>
                </mxCell>
                <mxCell id="78" style="edgeStyle=orthogonalEdgeStyle;rounded=0;orthogonalLoop=1;jettySize=auto;html=1;fontColor=#000000;entryX=0.5;entryY=0;entryDx=0;entryDy=0;" edge="1" parent="1" source="80">
                    <mxGeometry relative="1" as="geometry">
                        <mxPoint x="-420" y="2004" as="targetPoint"/>
                    </mxGeometry>
                </mxCell>
                <mxCell id="79" style="edgeStyle=orthogonalEdgeStyle;rounded=0;orthogonalLoop=1;jettySize=auto;html=1;entryX=0.5;entryY=0;entryDx=0;entryDy=0;fontColor=#000000;" edge="1" parent="1" source="80" target="81">
                    <mxGeometry relative="1" as="geometry"/>
                </mxCell>
                <mxCell id="80" value="f(6)" style="rhombus;whiteSpace=wrap;html=1;fontColor=#000000;fillColor=#E5BFFF;" vertex="1" parent="1">
                    <mxGeometry x="-162.5" y="1864" width="155" height="60" as="geometry"/>
                </mxCell>
                <mxCell id="81" value="50" style="whiteSpace=wrap;html=1;fontColor=#000000;fillColor=#E5BFFF;" vertex="1" parent="1">
                    <mxGeometry x="-325" y="2004" width="120" height="60" as="geometry"/>
                </mxCell>
                <mxCell id="82" value="100" style="whiteSpace=wrap;html=1;fontColor=#000000;fillColor=#E5BFFF;" vertex="1" parent="1">
                    <mxGeometry x="-480" y="2004" width="120" height="60" as="geometry"/>
                </mxCell>
                <mxCell id="83" value="" style="edgeStyle=orthogonalEdgeStyle;rounded=0;orthogonalLoop=1;jettySize=auto;html=1;fontColor=#000000;" edge="1" parent="1" source="84" target="80">
                    <mxGeometry relative="1" as="geometry"/>
                </mxCell>
                <mxCell id="84" value="f(6)&amp;nbsp; + 1" style="whiteSpace=wrap;html=1;fontColor=#000000;fillColor=#E5BFFF;" vertex="1" parent="1">
                    <mxGeometry x="-145" y="1754" width="120" height="60" as="geometry"/>
                </mxCell>
                <mxCell id="88" value="" style="edgeStyle=orthogonalEdgeStyle;rounded=0;orthogonalLoop=1;jettySize=auto;html=1;fontColor=#000000;" edge="1" parent="1" source="86" target="87">
                    <mxGeometry relative="1" as="geometry"/>
                </mxCell>
                <mxCell id="86" value="5" style="whiteSpace=wrap;html=1;fontColor=#000000;fillColor=#E5BFFF;" vertex="1" parent="1">
                    <mxGeometry x="50" y="2004" width="120" height="60" as="geometry"/>
                </mxCell>
                <mxCell id="87" value="1 + 1" style="whiteSpace=wrap;html=1;fontColor=#000000;fillColor=#E5BFFF;" vertex="1" parent="1">
                    <mxGeometry x="50" y="2144" width="120" height="60" as="geometry"/>
                </mxCell>
                <mxCell id="91" value="" style="edgeStyle=orthogonalEdgeStyle;rounded=0;orthogonalLoop=1;jettySize=auto;html=1;fontColor=#000000;" edge="1" parent="1" source="89" target="90">
                    <mxGeometry relative="1" as="geometry"/>
                </mxCell>
                <mxCell id="89" value="f(266) = f(166) + 1&lt;br&gt;" style="whiteSpace=wrap;html=1;fontColor=#000000;fillColor=#E5BFFF;" vertex="1" parent="1">
                    <mxGeometry x="1560" y="80" width="260" height="140" as="geometry"/>
                </mxCell>
                <mxCell id="101" value="" style="edgeStyle=orthogonalEdgeStyle;rounded=0;orthogonalLoop=1;jettySize=auto;html=1;fontColor=#000000;" edge="1" parent="1" source="90" target="92">
                    <mxGeometry relative="1" as="geometry"/>
                </mxCell>
                <mxCell id="90" value="f(166) = f(66) + 1" style="whiteSpace=wrap;html=1;fontColor=#000000;fillColor=#E5BFFF;" vertex="1" parent="1">
                    <mxGeometry x="1555" y="310" width="270" height="70" as="geometry"/>
                </mxCell>
                <mxCell id="94" value="" style="edgeStyle=orthogonalEdgeStyle;rounded=0;orthogonalLoop=1;jettySize=auto;html=1;fontColor=#000000;" edge="1" parent="1" source="92" target="93">
                    <mxGeometry relative="1" as="geometry"/>
                </mxCell>
                <mxCell id="92" value="f(66) = f(16) + 1" style="whiteSpace=wrap;html=1;fontColor=#000000;fillColor=#E5BFFF;" vertex="1" parent="1">
                    <mxGeometry x="1630" y="440" width="120" height="60" as="geometry"/>
                </mxCell>
                <mxCell id="96" value="" style="edgeStyle=orthogonalEdgeStyle;rounded=0;orthogonalLoop=1;jettySize=auto;html=1;fontColor=#000000;" edge="1" parent="1" source="93" target="95">
                    <mxGeometry relative="1" as="geometry"/>
                </mxCell>
                <mxCell id="93" value="f(16) = f(6) + 1" style="whiteSpace=wrap;html=1;fontColor=#000000;fillColor=#E5BFFF;" vertex="1" parent="1">
                    <mxGeometry x="1630" y="580" width="120" height="60" as="geometry"/>
                </mxCell>
                <mxCell id="98" value="" style="edgeStyle=orthogonalEdgeStyle;rounded=0;orthogonalLoop=1;jettySize=auto;html=1;fontColor=#000000;" edge="1" parent="1" source="95" target="97">
                    <mxGeometry relative="1" as="geometry"/>
                </mxCell>
                <mxCell id="95" value="f(6) = f(5) + 1" style="whiteSpace=wrap;html=1;fontColor=#000000;fillColor=#E5BFFF;" vertex="1" parent="1">
                    <mxGeometry x="1630" y="720" width="120" height="60" as="geometry"/>
                </mxCell>
                <mxCell id="102" value="" style="edgeStyle=orthogonalEdgeStyle;rounded=0;orthogonalLoop=1;jettySize=auto;html=1;fontColor=#000000;" edge="1" parent="1" source="97" target="99">
                    <mxGeometry relative="1" as="geometry"/>
                </mxCell>
                <mxCell id="97" value="f(5) = f(1) + 1" style="whiteSpace=wrap;html=1;fontColor=#000000;fillColor=#E5BFFF;" vertex="1" parent="1">
                    <mxGeometry x="1630" y="860" width="120" height="60" as="geometry"/>
                </mxCell>
                <mxCell id="99" value="f(1) = 1" style="whiteSpace=wrap;html=1;fontColor=#000000;fillColor=#E5BFFF;" vertex="1" parent="1">
                    <mxGeometry x="1630" y="960" width="120" height="60" as="geometry"/>
                </mxCell>
                <mxCell id="100" value="f(266) = f(1) + 1" style="whiteSpace=wrap;html=1;fontColor=#000000;fillColor=#E5BFFF;" vertex="1" parent="1">
                    <mxGeometry x="1890" y="160" width="610" height="120" as="geometry"/>
                </mxCell>
            </root>
        </mxGraphModel>
    </diagram>
</mxfile>